# xmcd
#
# Track frame offsets: 
#        150
#        20944
#        37830
#        59436
#        72017
#        92721
#        109473
#        124351
#        140846
#        158448
#        175249
#        192813
#        211736
#        230801
#        248675
#        271390
#        289740
#        313933
#
# Disc length: 4480 seconds
#
# Revision: 0
# Processed by: cddbd v1.5.2PL0 Copyright (c) Steve Scherf et al.
# Submitted via: ExactAudioCopy v0.99pb5
#
DISCID=0f117e12
DTITLE=Russell Watson - With Love From Russell Watson
DYEAR=2010
DGENRE=Pop
TTITLE0=Have I Told You Lately
TTITLE1=When I Fall In Love
TTITLE2=Strangers In The Night
TTITLE3=You Are So Beautiful
TTITLE4=The Magic Of Love (with Lionel Ritchie)
TTITLE5=You'll Still Be There For Me
TTITLE6=Let There Be Love
TTITLE7=Unforgettable
TTITLE8=To All The Girls I've Loved Before (with Alexander O'Neal)
TTITLE9=If You Don't Know Me By Now
TTITLE10=One More Time
TTITLE11=Try A Little Tenderness
TTITLE12=Me And Mrs Jones
TTITLE13=We Will Stand Together
TTITLE14=You Raise Me Up
TTITLE15=The Best That Love Can Be (with Cleopatra Higgins)
TTITLE16=Somewhere (from West Side Story)
TTITLE17=Bridge Over Troubled Water
EXTD=
EXTT0=
EXTT1=
EXTT2=
EXTT3=
EXTT4=
EXTT5=
EXTT6=
EXTT7=
EXTT8=
EXTT9=
EXTT10=
EXTT11=
EXTT12=
EXTT13=
EXTT14=
EXTT15=
EXTT16=
EXTT17=
PLAYORDER=
